<svg width="1236" height="663" viewBox="0 0 1236 663" fill="none" xmlns="http://www.w3.org/2000/svg">
    <path d="M315.489 60.2021L423.622 168.238M223.504 18.4427L351.428 146.251H402.135M318.497 138.5L348.261 168.238H669.13H693.105M220.971 138.501L250.735 168.238H0M194.057 209.048L235.017 249.972H335.709M46.2298 196.078H281.766L355.386 269.631H447.051L386.891 209.048H597.819M526.258 553.201L633.283 446.272V427.923M633.283 427.923V396.92L697.834 332.427C693.502 322.343 689.898 311.872 687.091 301.08M633.283 427.923L708.082 353.192C708.827 354.52 709.585 355.839 710.356 357.15C724.463 381.131 742.968 402.219 764.763 419.308M440.245 363.115L380.128 303.041H158.004M544.465 383.475H474.883M169.245 181.876H665.037H688.531M647.295 211.218L415.909 442.397M647.295 211.218H699.461C697.783 221.516 696.694 233.049 696.617 243.803H614.681L647.295 211.218ZM401.66 404.829L555.073 251.554H429.1M737.1 251.554H696.705H680.075M607.477 251.554H680.075M723.209 410.84L636.133 497.839V548.614M535.916 699.517L636.133 599.39V548.614M636.133 548.614L600.748 583.967M663.048 574.081L689.962 547.19V635.454M709.277 474.744L748.198 435.858L764.763 419.308M806.17 377.939L805.463 378.645M713.077 667.09V524.096L779.017 456.952C797.844 468.251 814.809 475.022 836.486 480.955M916.361 116.627L916.288 116.7M924.139 311.348L897.958 337.483M1196.91 355.161H1269.1V423.494L1196.91 495.624M1196.91 495.624L1169.04 523.464M1196.91 495.624V539.914M1196.91 539.914V560.161L1272.9 484.235M1196.91 539.914L1137.69 599.073M1272.9 484.235L1290.31 466.836M1272.9 484.235V462.09L1377.07 358.008M1377.07 358.008H1346.68L1311.53 322.893H1107.89C1112.55 310.483 1116.71 297.544 1119.08 284.191M1377.07 358.008H1560.41M1014.52 322.893H1015.69M1143.08 285.562H1169.04L1186.46 268.163H1307.1L1367.42 328.429L1417.45 278.444M1510.38 252.345H1443.57L1417.45 278.444M1417.45 278.444L1407.16 268.163H1388.24L1349.61 229.567M1438.82 300.115L1439.53 300.827M1439.53 300.827L1461.62 322.893H1417.45L1439.53 300.827ZM1439.53 300.827L1454.81 285.562M1145.67 252.345H1243.14L1220.34 229.567M1220.34 229.567H1349.61M1220.34 229.567L1198.09 207.343M1349.61 229.567H1461.62M1198.09 207.343L1175.85 185.119M1198.09 207.343H1346.68M1234.88 154.432L1137.1 180.608M1324.59 25.5953H1036.66L1029.54 37.2901M901.241 449.752C899.419 449.752 897.603 449.728 895.792 449.681L896.571 409.352M901.241 449.752C935.516 449.752 967.822 441.333 996.202 426.452M901.241 449.752C958.289 449.752 1009.88 426.429 1047 388.805M901.241 466.361C899.312 466.361 897.389 466.336 895.472 466.287C877.18 465.82 859.439 463.134 842.511 458.489M901.241 466.361C938.257 466.361 973.149 457.279 1003.81 441.225C1005.06 440.57 1006.3 439.904 1007.54 439.227M901.241 466.361C939.765 466.361 975.99 456.524 1007.54 439.227M1000.09 341.938C1005.83 336.074 1011.06 329.701 1015.69 322.893M1000.09 341.938L1018.45 360.282M1000.09 341.938C990.11 352.124 978.567 360.775 965.849 367.501L961.865 359.763C973.777 353.451 984.587 345.338 993.929 335.786C1007.49 321.917 1017.97 305.016 1024.23 286.195M808.254 62.7829C835.982 48.7604 869.779 40.8738 902.982 40.8738L903.087 24.4039M808.254 62.7829C789.244 72.3964 771.939 84.8871 756.913 99.6818M808.254 62.7829C789.226 72.4056 771.906 84.9112 756.87 99.7246M987.847 105.833C1011.22 120.351 1030.67 140.568 1044.26 164.541M987.847 105.833C973.921 97.1834 958.605 90.5572 942.31 86.3665M987.847 105.833L974.359 128.006C962.515 120.621 949.472 114.976 935.588 111.431C924.965 108.719 913.85 107.235 902.403 107.141C902.016 107.138 901.629 107.137 901.241 107.137C878.976 107.137 857.939 112.394 839.307 121.734M1044.26 164.541C1050.78 176.027 1055.94 188.375 1059.55 201.37C1063.3 214.893 1065.36 229.118 1065.49 243.803M1044.26 164.541L1033.02 171.028L1021.77 177.515M903.087 24.4039C921.396 24.6276 940.085 26.937 957.066 31.3471M903.087 24.4039C903.087 24.4039 903.023 10.1398 902.982 1C863.201 1 823.198 10.4895 789.999 27.3287L800.647 48.0103C780.099 58.4159 761.396 71.9315 745.158 87.9373C722.391 110.379 704.47 137.715 693.105 168.238M957.066 31.3471L952.762 47.3943L942.31 86.3665M957.066 31.3471C978.653 36.9537 998.959 45.7355 1017.45 57.1635M693.105 168.238C691.437 172.717 689.911 177.265 688.531 181.876M756.913 99.6818L756.87 99.7246M756.913 99.6818C756.899 99.6961 756.884 99.7103 756.87 99.7246M942.31 86.3665C929.697 83.1227 916.498 81.3381 902.904 81.2034C902.35 81.1979 901.796 81.1952 901.241 81.1952C874.695 81.1952 849.619 87.4871 827.426 98.6596C812.152 106.349 798.244 116.351 786.162 128.204L804.522 146.549C814.711 136.587 826.435 128.186 839.307 121.734M788.246 181.876H778.349H749.702M788.246 181.876C794.319 171.101 801.891 161.281 810.68 152.701C820.234 143.373 831.225 135.509 843.291 129.472M788.246 181.876C780.868 194.969 775.703 209.473 773.259 224.881C772.28 231.054 771.737 237.372 771.664 243.803C771.658 244.303 771.656 244.804 771.656 245.306C771.656 256.373 773.045 267.116 775.66 277.369L767.247 279.622M788.246 181.876H848.704M749.702 181.876H705.951M749.702 181.876C744.77 193.625 741.166 206.069 739.079 219.02C737.777 227.099 737.066 235.375 736.99 243.803C736.986 244.303 736.983 244.804 736.983 245.306C736.983 259.474 738.78 273.223 742.159 286.338M705.951 181.876C707.458 177.256 709.127 172.707 710.948 168.238C721.444 142.49 737.042 119.36 756.488 100.102C756.561 100.03 756.634 99.9574 756.707 99.8853C756.761 99.8316 756.815 99.7782 756.87 99.7246M705.951 181.876H688.531M680.075 251.554C680.548 268.616 682.958 285.196 687.091 301.08M687.091 301.08L703.152 296.78C707.955 315.283 715.286 332.767 724.755 348.844M724.755 348.844L759.725 328.672M724.755 348.844C738.138 371.565 755.79 391.475 776.611 407.471M767.247 279.622L742.159 286.338M767.247 279.622C770.531 292.462 775.616 304.582 782.216 315.699L789.759 311.348C800.861 330.014 816.525 345.654 835.216 356.733L817.204 386.342M742.159 286.338C746.038 301.394 752.002 315.614 759.725 328.672M759.725 328.672C771.354 348.334 786.97 365.362 805.463 378.645M764.763 419.308L776.611 407.471M776.611 407.471C797.255 423.333 821.015 435.347 846.814 442.442L842.511 458.489M842.511 458.489L836.486 480.955M836.486 480.955C854.532 485.894 873.412 488.819 892.868 489.473C893.586 489.497 894.304 489.518 895.023 489.536C897.09 489.587 899.162 489.613 901.241 489.613C1036.29 489.613 1145.77 380.233 1145.77 245.306C1145.77 222.908 1142.75 201.215 1137.1 180.608M896.571 409.352C882.993 408.973 869.827 406.948 857.266 403.469C843.043 399.53 829.596 393.728 817.204 386.342M896.571 409.352L897.071 383.414L897.239 374.715M996.202 426.452L977.73 390.575C992.851 382.612 1006.58 372.36 1018.45 360.282M996.202 426.452C1015.06 416.564 1032.18 403.824 1047 388.805M805.463 378.645C809.259 381.372 813.176 383.94 817.204 386.342M843.291 129.472C860.729 120.747 880.411 115.836 901.241 115.836C901.443 115.836 901.644 115.837 901.845 115.838C901.975 115.838 902.105 115.839 902.235 115.84C906.985 115.876 911.673 116.167 916.288 116.7M843.291 129.472L839.307 121.734M901.597 148.896H884.063L901.942 131.033L901.597 148.896ZM901.597 148.896H925.54M925.54 148.896L933.333 119.837C927.786 118.425 922.096 117.371 916.288 116.7M925.54 148.896H961.651H987.735C998.265 158.332 1007.24 169.466 1014.23 181.865L1021.77 177.515M1030.82 243.803H998.628M1030.82 243.803C1030.82 244.303 1030.83 244.804 1030.83 245.306C1030.83 253.291 1030.1 261.107 1028.72 268.693L1037.3 270.165M1030.82 243.803C1030.76 238.854 1030.43 233.971 1029.83 229.17C1029.03 222.734 1027.76 216.445 1026.05 210.339L1034.46 208.087C1032.06 199.483 1028.84 191.218 1024.9 183.379C1023.9 181.396 1022.86 179.441 1021.77 177.515M1024.23 286.195H1033.38M1024.23 286.195H998.628M897.958 337.483L897.239 374.715M897.958 337.483L866.243 369.998C876.147 372.767 886.53 374.39 897.239 374.715M1114.62 186.628C1109.71 168.767 1102.61 151.811 1093.63 136.063C1075.25 103.819 1048.99 76.646 1017.45 57.1635M1114.62 186.628C1119.62 204.853 1122.36 224.019 1122.49 243.803C1122.49 244.304 1122.49 244.805 1122.49 245.306C1122.49 258.573 1121.32 271.567 1119.08 284.191M1114.62 186.628L1137.1 180.608M1065.49 243.803H1039.53C1039.53 244.303 1039.53 244.804 1039.53 245.306C1039.53 253.793 1038.77 262.101 1037.3 270.165M1065.49 243.803L1105.87 243.839C1105.74 225.542 1103.2 207.781 1098.55 190.928C1094.02 174.486 1087.49 158.874 1079.23 144.369C1062.25 114.538 1037.97 89.3931 1008.82 71.3588L1017.45 57.1635M1065.49 243.803C1065.5 244.303 1065.5 244.804 1065.5 245.306C1065.5 255.289 1064.61 265.064 1062.9 274.555C1059.8 291.746 1054.03 308.008 1046.02 322.893C1038.62 336.65 1029.31 349.231 1018.45 360.282M1037.3 270.165C1036.31 275.627 1034.99 280.977 1033.38 286.195M1015.69 322.893C1023.29 311.722 1029.3 299.381 1033.38 286.195M1063.45 369.961C1083.07 344.509 1096.83 314.309 1102.7 281.38L1119.08 284.191M1047 388.805L1058.75 400.549C1043.71 415.785 1026.46 428.849 1007.54 439.227M1137.1 180.608C1120.58 120.332 1081.52 69.3598 1029.54 37.2901M1029.54 37.2901L1022.74 48.4771L1017.45 57.1635M871.103 311.132H824.395L784.105 261.358L854.577 174.596H901.285L830.813 261.358L871.103 311.132ZM961.924 311.132H915.352L875.2 261.358L945.398 174.596H998.662V311.132H961.787V211.583L921.771 261.358L961.924 311.132Z"
          stroke="#455156" stroke-width="2"/>
</svg>
